<svg width="154" height="153" viewBox="0 0 154 153" fill="none" xmlns="http://www.w3.org/2000/svg">
<path d="M76.31 0C37.2842 2.78354e-06 39.7212 16.9239 39.7212 16.9239L39.7647 34.4569H77.0061V39.7212H24.9726C24.9726 39.7212 0 36.8891 0 76.2665C-2.78342e-06 115.644 21.7966 114.247 21.7966 114.247H34.805V95.9748C34.805 95.9748 34.1038 74.1782 56.2536 74.1782H93.1904C93.1904 74.1782 113.943 74.5136 113.943 54.1218V20.4044C113.943 20.4044 117.094 0 76.31 0ZM55.775 11.7902C59.4803 11.7902 62.475 14.7849 62.475 18.4902C62.475 22.1954 59.4803 25.1901 55.775 25.1901C52.0698 25.1901 49.075 22.1954 49.075 18.4902C49.075 14.7849 52.0698 11.7902 55.775 11.7902Z" fill="url(#paint0_linear)"/>
<path d="M77.4183 152.928C116.444 152.928 114.007 136.004 114.007 136.004L113.964 118.471H76.7222V113.207H128.756C128.756 113.207 153.728 116.039 153.728 76.6613C153.728 37.2839 131.932 38.6803 131.932 38.6803H118.923V56.9529C118.923 56.9529 119.625 78.7496 97.4747 78.7496H60.5379C60.5379 78.7496 39.7854 78.4141 39.7854 98.806V132.523C39.7854 132.523 36.6346 152.928 77.4183 152.928ZM97.9533 141.138C94.2481 141.138 91.2533 138.143 91.2533 134.438C91.2533 130.732 94.2481 127.738 97.9533 127.738C101.659 127.738 104.653 130.732 104.653 134.438C104.653 138.143 101.659 141.138 97.9533 141.138Z" fill="url(#paint1_linear)"/>
<defs>
<linearGradient id="paint0_linear" x1="14.7736" y1="13.7554" x2="90.9557" y2="89.1775" gradientUnits="userSpaceOnUse">
<stop offset="0.9999" stop-color="white"/>
<stop offset="1" stop-color="#366994"/>
</linearGradient>
<linearGradient id="paint1_linear" x1="61.5342" y1="62.1866" x2="143.346" y2="139.526" gradientUnits="userSpaceOnUse">
<stop offset="0.9998" stop-color="white"/>
<stop offset="0.9999" stop-color="#FFDD4F"/>
<stop offset="1" stop-color="#FFC331"/>
</linearGradient>
</defs>
</svg>
